<svg xmlns="http://www.w3.org/2000/svg" viewBox="20 15 95 95">
  <path fill="#1A8292" d="M77.3,34.9c15.6,0,28.2,12.7,28.2,28.2S92.9,91.4,77.3,91.4S49.1,78.7,49.1,63.2S61.8,34.9,77.3,34.9 M77.3,33.4c-16.4,0-29.7,13.3-29.7,29.7s13.3,29.7,29.7,29.7s29.7-13.3,29.7-29.7S93.8,33.4,77.3,33.4L77.3,33.4z"/>
  <path fill="#D08529" d="M52.6,53.9C66.1,53.9,77,64.8,77,78.3s-10.9,24.4-24.4,24.4S28.3,91.7,28.3,78.3S39.2,53.9,52.6,53.9 M52.6,52.4c-14.3,0-25.9,11.6-25.9,25.9s11.6,25.9,25.9,25.9s25.9-11.6,25.9-25.9S66.9,52.4,52.6,52.4L52.6,52.4z"/>
  <path fill="#0A2D2F" d="M48.1,23.5c11.5,0,20.9,9.4,20.9,20.9s-9.4,20.9-20.9,20.9S27.1,56,27.1,44.4S36.5,23.5,48.1,23.5 M48.1,21.5c-12.7,0-22.9,10.3-22.9,22.9s10.3,22.9,22.9,22.9S71,57.1,71,44.4S60.8,21.5,48.1,21.5L48.1,21.5z"/>
  <path fill="#1A8292" d="M77.6,30.5c17.9,0,32.4,14.5,32.4,32.4S95.4,95.4,77.6,95.4S45.1,80.8,45.1,62.9S59.7,30.5,77.6,30.5 M77.6,29.5c-18.5,0-33.4,15-33.4,33.4s15,33.4,33.4,33.4s33.4-15,33.4-33.4S96,29.5,77.6,29.5L77.6,29.5z"/>
  <path fill="#D08529" d="M52.6,50.2c15.5,0,28,12.6,28,28s-12.6,28-28,28s-28-12.6-28-28S37.2,50.2,52.6,50.2 M52.6,49.2c-16,0-29,13-29,29s13,29,29,29s29-13,29-29S68.7,49.2,52.6,49.2L52.6,49.2z"/>
  <path fill="#1A8292" d="M77,39.6c13.2,0,23.9,10.7,23.9,23.9S90.2,87.4,77,87.4S53.2,76.7,53.2,63.5S63.9,39.6,77,39.6 M77,37.6c-14.3,0-25.9,11.6-25.9,25.9S62.7,89.4,77,89.4s25.9-11.6,25.9-25.9S91.3,37.6,77,37.6L77,37.6z"/>
  <path fill="#0A2D2F" d="M48.1,27.2c9.5,0,17.2,7.7,17.2,17.2s-7.7,17.2-17.2,17.2s-17.2-7.7-17.2-17.2S38.6,27.2,48.1,27.2 M48.1,25.7c-10.3,0-18.7,8.4-18.7,18.7s8.4,18.7,18.7,18.7s18.7-8.4,18.7-18.7S58.4,25.7,48.1,25.7L48.1,25.7z"/>
</svg>
